<?xml version="1.0" encoding="UTF-8"?>
<svg xmlns="http://www.w3.org/2000/svg" xmlns:xlink="http://www.w3.org/1999/xlink" width="29px" height="32px" viewBox="0 0 29 32" version="1.1">
<g id="surface1">
<path style=" stroke:none;fill-rule:nonzero;fill:rgb(0%,0%,0%);fill-opacity:1;" d="M 28.839844 6.859375 C 27.789062 7.375 26.660156 7.71875 25.472656 7.878906 C 26.683594 7.078125 27.613281 5.808594 28.050781 4.304688 C 26.917969 5.042969 25.664062 5.582031 24.328125 5.871094 C 23.261719 4.613281 21.742188 3.832031 20.058594 3.832031 C 16.820312 3.832031 14.199219 6.722656 14.199219 10.292969 C 14.199219 10.796875 14.253906 11.292969 14.351562 11.765625 C 9.488281 11.492188 5.171875 8.921875 2.28125 5.011719 C 1.777344 5.96875 1.488281 7.078125 1.488281 8.261719 C 1.488281 10.503906 2.523438 12.480469 4.09375 13.640625 C 3.132812 13.605469 2.230469 13.316406 1.441406 12.832031 C 1.441406 12.859375 1.441406 12.886719 1.441406 12.914062 C 1.441406 16.046875 3.460938 18.652344 6.136719 19.25 C 5.648438 19.398438 5.128906 19.476562 4.597656 19.476562 C 4.21875 19.476562 3.851562 19.4375 3.492188 19.359375 C 4.242188 21.925781 6.402344 23.796875 8.964844 23.847656 C 6.960938 25.582031 4.4375 26.613281 1.691406 26.613281 C 1.21875 26.613281 0.75 26.582031 0.292969 26.523438 C 2.882812 28.355469 5.964844 29.425781 9.269531 29.425781 C 20.042969 29.425781 25.933594 19.578125 25.933594 11.042969 C 25.933594 10.757812 25.925781 10.480469 25.914062 10.203125 C 27.0625 9.296875 28.054688 8.15625 28.839844 6.859375 "/>
</g>
</svg>
